<?xml version="1.0" encoding="UTF-8" standalone="no"?>
<!DOCTYPE svg PUBLIC "-//W3C//DTD SVG 1.1//EN"
 "http://www.w3.org/Graphics/SVG/1.1/DTD/svg11.dtd">
<!-- Generated by graphviz version 2.38.0 (20140413.2041)
 -->
<!-- Title: models_diagram Pages: 1 -->
<svg width="195pt" height="453pt"
 viewBox="0.00 0.00 194.85 453.00" xmlns="http://www.w3.org/2000/svg" xmlns:xlink="http://www.w3.org/1999/xlink">
<g id="graph0" class="graph" transform="scale(1 1) rotate(0) translate(4 449)">
<title>models_diagram</title>
<polygon fill="white" stroke="none" points="-4,4 -4,-449 190.849,-449 190.849,4 -4,4"/>
<!-- Comment -->
<g id="node1" class="node"><title>Comment</title>
<path fill="none" stroke="black" d="M12,-0.5C12,-0.5 132.687,-0.5 132.687,-0.5 138.687,-0.5 144.687,-6.5 144.687,-12.5 144.687,-12.5 144.687,-102.5 144.687,-102.5 144.687,-108.5 138.687,-114.5 132.687,-114.5 132.687,-114.5 12,-114.5 12,-114.5 6,-114.5 0,-108.5 0,-102.5 0,-102.5 0,-12.5 0,-12.5 0,-6.5 6,-0.5 12,-0.5"/>
<text text-anchor="middle" x="72.3433" y="-99.3" font-family="Times,serif" font-size="14.00">Comment</text>
<polyline fill="none" stroke="black" points="0,-92.5 144.687,-92.5 "/>
<text text-anchor="start" x="8" y="-77.3" font-family="Times,serif" font-size="14.00">id :integer</text>
<text text-anchor="start" x="8" y="-63.3" font-family="Times,serif" font-size="14.00">comment_content :text</text>
<text text-anchor="start" x="8" y="-49.3" font-family="Times,serif" font-size="14.00">user_id :integer</text>
<text text-anchor="start" x="8" y="-35.3" font-family="Times,serif" font-size="14.00">song_id :integer</text>
<text text-anchor="start" x="8" y="-21.3" font-family="Times,serif" font-size="14.00">created_at :datetime</text>
<text text-anchor="start" x="8" y="-7.3" font-family="Times,serif" font-size="14.00">updated_at :datetime</text>
</g>
<!-- Song -->
<g id="node2" class="node"><title>Song</title>
<path fill="none" stroke="black" d="M65.8379,-151.5C65.8379,-151.5 174.849,-151.5 174.849,-151.5 180.849,-151.5 186.849,-157.5 186.849,-163.5 186.849,-163.5 186.849,-267.5 186.849,-267.5 186.849,-273.5 180.849,-279.5 174.849,-279.5 174.849,-279.5 65.8379,-279.5 65.8379,-279.5 59.8379,-279.5 53.8379,-273.5 53.8379,-267.5 53.8379,-267.5 53.8379,-163.5 53.8379,-163.5 53.8379,-157.5 59.8379,-151.5 65.8379,-151.5"/>
<text text-anchor="middle" x="120.343" y="-264.3" font-family="Times,serif" font-size="14.00">Song</text>
<polyline fill="none" stroke="black" points="53.8379,-257.5 186.849,-257.5 "/>
<text text-anchor="start" x="61.8379" y="-242.3" font-family="Times,serif" font-size="14.00">id :integer</text>
<text text-anchor="start" x="61.8379" y="-228.3" font-family="Times,serif" font-size="14.00">song_name :string</text>
<text text-anchor="start" x="61.8379" y="-214.3" font-family="Times,serif" font-size="14.00">song_image :string</text>
<text text-anchor="start" x="61.8379" y="-200.3" font-family="Times,serif" font-size="14.00">song_file :string</text>
<text text-anchor="start" x="61.8379" y="-186.3" font-family="Times,serif" font-size="14.00">user_id :integer</text>
<text text-anchor="start" x="61.8379" y="-172.3" font-family="Times,serif" font-size="14.00">created_at :datetime</text>
<text text-anchor="start" x="61.8379" y="-158.3" font-family="Times,serif" font-size="14.00">updated_at :datetime</text>
</g>
<!-- Song&#45;&gt;Comment -->
<g id="edge1" class="edge"><title>Song&#45;&gt;Comment</title>
<path fill="none" stroke="#e559bf" d="M98.57,-143.737C96.6046,-137.349 94.6192,-130.897 92.6669,-124.552"/>
<ellipse fill="none" stroke="#e559bf" cx="99.7818" cy="-147.675" rx="4.00001" ry="4.00001"/>
<polygon fill="#e559bf" stroke="#e559bf" points="92.5751,-124.253 93.9352,-113.372 91.1047,-119.474 89.6342,-114.696 89.6342,-114.696 89.6342,-114.696 91.1047,-119.474 85.3332,-116.019 92.5751,-124.253 92.5751,-124.253"/>
</g>
<!-- User -->
<g id="node3" class="node"><title>User</title>
<path fill="none" stroke="black" d="M17.8379,-316.5C17.8379,-316.5 126.849,-316.5 126.849,-316.5 132.849,-316.5 138.849,-322.5 138.849,-328.5 138.849,-328.5 138.849,-432.5 138.849,-432.5 138.849,-438.5 132.849,-444.5 126.849,-444.5 126.849,-444.5 17.8379,-444.5 17.8379,-444.5 11.8379,-444.5 5.83789,-438.5 5.83789,-432.5 5.83789,-432.5 5.83789,-328.5 5.83789,-328.5 5.83789,-322.5 11.8379,-316.5 17.8379,-316.5"/>
<text text-anchor="middle" x="72.3433" y="-429.3" font-family="Times,serif" font-size="14.00">User</text>
<polyline fill="none" stroke="black" points="5.83789,-422.5 138.849,-422.5 "/>
<text text-anchor="start" x="13.8379" y="-407.3" font-family="Times,serif" font-size="14.00">id :integer</text>
<text text-anchor="start" x="13.8379" y="-393.3" font-family="Times,serif" font-size="14.00">user_name :string</text>
<text text-anchor="start" x="13.8379" y="-379.3" font-family="Times,serif" font-size="14.00">email :string</text>
<text text-anchor="start" x="13.8379" y="-365.3" font-family="Times,serif" font-size="14.00">profile_pic :string</text>
<text text-anchor="start" x="13.8379" y="-351.3" font-family="Times,serif" font-size="14.00">bio :text</text>
<text text-anchor="start" x="13.8379" y="-337.3" font-family="Times,serif" font-size="14.00">created_at :datetime</text>
<text text-anchor="start" x="13.8379" y="-323.3" font-family="Times,serif" font-size="14.00">updated_at :datetime</text>
</g>
<!-- User&#45;&gt;Comment -->
<g id="edge3" class="edge"><title>User&#45;&gt;Comment</title>
<path fill="none" stroke="#695ee0" d="M49.8148,-308.445C47.5573,-298.965 45.6276,-289.305 44.3433,-280 36.5043,-223.205 35.9474,-207.715 44.3433,-151 45.6286,-142.317 47.5578,-133.321 49.8141,-124.501"/>
<ellipse fill="none" stroke="#695ee0" cx="50.8161" cy="-312.473" rx="4.00001" ry="4.00001"/>
<polygon fill="#695ee0" stroke="#695ee0" points="49.8694,-124.297 56.8272,-115.821 51.1765,-119.47 52.4837,-114.644 52.4837,-114.644 52.4837,-114.644 51.1765,-119.47 48.1401,-113.468 49.8694,-124.297 49.8694,-124.297"/>
</g>
<!-- User&#45;&gt;Song -->
<g id="edge2" class="edge"><title>User&#45;&gt;Song</title>
<path fill="none" stroke="#b73901" d="M93.1744,-308.761C95.0477,-302.399 96.9473,-295.949 98.8263,-289.568"/>
<ellipse fill="none" stroke="#b73901" cx="92.0313" cy="-312.643" rx="4.00001" ry="4.00001"/>
<polygon fill="#b73901" stroke="#b73901" points="98.9305,-289.214 106.072,-280.892 100.343,-284.418 101.755,-279.621 101.755,-279.621 101.755,-279.621 100.343,-284.418 97.4387,-278.35 98.9305,-289.214 98.9305,-289.214"/>
</g>
</g>
</svg>
